PathFileType	4	(x/y/z)	S06_P20_T09
DataRate	CameraRate	NumFrames	NumMarkers	Units	OrigDataRate	OrigDataStartFrame	OrigNumFrames
240	240	8	51	mm	240	250	332
Frame#	Time	Sternum			R.Acromium			L.Acromium			Top.Head			R.ASIS			L.ASIS			R.PSIS			L.PSIS			R.Great.Tro			L.Great.Tro			R.Iliac.Crest			L.Iliac.Crest			V.Sacral			R.Thigh.Upper.Post			R.Thigh.Lower.Ant			R.Thigh.Lower.Post			R.Thigh.Upper.Ant			R.Knee.Lat			R.Knee.Med			R.Shank.Upper.Post			R.Shank.Lower.Ant			R.Shank.Lower.Post			R.Shank.Upper.Ant			R.Ankle.Lat			R.Ankle.Med			R.Heel.Upper			R.Heel.Med			R.Heel.Lat			R.Toe.Lat			R.Toe.Med			R.Toe.Tip			L.Thigh.Upper.Post			L.Thigh.Lower.Ant			L.Thigh.Lower.Post			L.Thigh.Upper.Ant			L.Knee.Lat			L.Knee.Med			L.Shank.Upper.Post			L.Shank.Lower.Ant			L.Shank.Lower.Post			L.Shank.Upper.Ant			L.Ankle.Lat			L.Ankle.Med			L.Heel.Upper			L.Heel.Med			L.Heel.Lat			L.Toe.Lat			L.Toe.Med			L.Toe.Tip			Cervical.Spine			Back			
		X1	Y1	Z1	X2	Y2	Z2	X3	Y3	Z3	X4	Y4	Z4	X5	Y5	Z5	X6	Y6	Z6	X7	Y7	Z7	X8	Y8	Z8	X9	Y9	Z9	X10	Y10	Z10	X11	Y11	Z11	X12	Y12	Z12	X13	Y13	Z13	X14	Y14	Z14	X15	Y15	Z15	X16	Y16	Z16	X17	Y17	Z17	X18	Y18	Z18	X19	Y19	Z19	X20	Y20	Z20	X21	Y21	Z21	X22	Y22	Z22	X23	Y23	Z23	X24	Y24	Z24	X25	Y25	Z25	X26	Y26	Z26	X27	Y27	Z27	X28	Y28	Z28	X29	Y29	Z29	X30	Y30	Z30	X31	Y31	Z31	X32	Y32	Z32	X33	Y33	Z33	X34	Y34	Z34	X35	Y35	Z35	X36	Y36	Z36	X37	Y37	Z37	X38	Y38	Z38	X39	Y39	Z39	X40	Y40	Z40	X41	Y41	Z41	X42	Y42	Z42	X43	Y43	Z43	X44	Y44	Z44	X45	Y45	Z45	X46	Y46	Z46	X47	Y47	Z47	X48	Y48	Z48	X49	Y49	Z49	X50	Y50	Z50	X51	Y51	Z51	

250	1.0375	94.691	1279.7	303.1	-29.014	1485.5	474.25	-40.739	1486.3	121.42	21.326	1802.5	298.67	35.67	1039.3	432.61	51.264	1039.8	178.19	-157.27	1061	329.51	-154.41	1065.3	249.12	-22.562	969.95	478.3	-34.301	970.72	120.98	-46.634	1116	458.16	-17.74	1111.6	138.89	-169.39	1027.9	291.62	15.173	719.67	486.22	85.046	646.23	463.69	16.432	630.91	472.9	84.53	737.25	470.65	35.95	522.94	463.38	60.826	520.37	336.43	-149.57	401.35	457.04	-158.68	314.47	432.57	-210.34	355.29	440.64	-99.219	360.89	449.45	-289	245.56	413.15	-272.86	237.29	325.44	-351.96	281.26	365.04	-372.63	260.22	331.49	-375.8	255.65	396.66	-292.98	98.22	428.58	-266.32	90.491	311.07	-219.82	43.409	353.76	88.836	723.02	145.85	150.01	660.37	212.76	90.681	634.16	167.32	140.36	752.15	188.23	98.655	542.59	184.65	113.42	555.59	304.36	71.719	313.66	193.92	139.55	256.61	203.78	69.917	242.01	211.74	137.09	326.97	191.29	123.39	104.79	217.28	127.23	112.31	309.3	50.868	69.76	257.48	53.912	43.35	290.91	58.804	43.306	228.94	238.37	47.868	202.43	250.35	58.938	319.25	322.98	78.401	271.41	-90.873	1537.2	299.83	-146.16	1263.4	299.5
251	1.0417	100.17	1279.9	303.15	-23.642	1485.9	474.1	-34.818	1486.6	121.23	26.822	1802.9	298.36	40.973	1039.5	432.4	56.581	1040.4	177.92	-152.02	1061.3	329.39	-149.14	1065.8	248.99	-16.939	970.08	478.15	-29.091	971.45	120.67	-41.312	1116.2	458.04	-12.387	1112.2	138.78	-164.15	1028.3	291.43	24.077	720.52	486.22	94.732	647.92	463.47	26.388	631.79	472.9	93.093	738.97	470.33	47.384	524.23	463.46	71.347	521.88	336.27	-138.12	402.99	457.81	-147.7	316.34	433.05	-199.17	357.2	441.68	-87.964	362.53	449.71	-278.5	248.3	414.23	-262.68	239.6	326.42	-341.79	283.61	365.94	-362.51	262.29	332.62	-365.49	258.18	397.82	-282.18	101.19	430.39	-255.75	92.593	313.06	-209.04	44.927	355.93	93.225	723.23	145.33	154.23	660.38	212.24	94.79	634.37	166.82	144.92	752.19	187.65	102.33	542.68	184.25	117.5	555.65	303.85	73.754	313.93	193.74	141.16	256.39	203.57	71.431	242.31	211.61	139.22	326.74	191.03	123.82	104.74	217.24	127.69	112.28	309.24	50.994	69.849	257.45	54.008	43.453	290.89	58.892	43.393	228.91	238.53	47.48	202.36	250.59	58.398	319.25	323.33	77.468	271.41	-85.233	1537.7	299.55	-140.69	1263.9	299.22
252	1.0458	105.63	1280.2	303.19	-18.259	1486.3	473.96	-28.92	1486.9	121.06	32.33	1803.4	298.06	46.253	1039.8	432.2	61.863	1040.9	177.65	-146.81	1061.7	329.27	-143.9	1066.3	248.87	-11.37	970.26	478	-23.918	972.17	120.38	-36.006	1116.4	457.91	-7.0681	1112.8	138.67	-158.93	1028.8	291.25	32.92	721.46	486.16	104.35	649.73	463.16	36.288	632.77	472.83	101.58	740.78	469.94	58.755	525.62	463.45	81.727	523.52	336.01	-126.64	404.53	458.5	-136.57	318.09	433.47	-187.9	358.92	442.65	-76.631	364.13	449.91	-267.79	250.76	415.25	-252.25	241.62	327.33	-331.52	285.47	366.74	-352.2	263.79	333.65	-355	260.19	398.88	-270.79	103.96	432.24	-244.55	94.488	315.08	-197.5	46.555	358.19	97.501	723.4	144.84	158.34	660.36	211.72	98.766	634.56	166.35	149.4	752.19	187.06	105.89	542.75	183.88	121.47	555.71	303.37	75.706	314.2	193.61	142.69	256.17	203.39	72.874	242.61	211.52	141.26	326.52	190.79	124.22	104.7	217.22	128.1	112.26	309.18	51.104	69.93	257.43	54.091	43.543	290.87	58.97	43.478	228.88	238.68	47.149	202.3	250.8	57.908	319.27	323.63	76.622	271.42	-79.595	1538.2	299.29	-135.23	1264.4	298.96
253	1.05	111.06	1280.4	303.22	-12.866	1486.8	473.83	-23.047	1487.2	120.89	37.85	1803.8	297.76	51.511	1040.2	432	67.116	1041.4	177.4	-141.62	1062.1	329.14	-138.68	1066.8	248.77	-5.8566	970.48	477.87	-18.778	972.86	120.11	-30.715	1116.7	457.8	-1.777	1113.4	138.57	-153.73	1029.2	291.1	41.698	722.5	486.05	113.88	651.64	462.78	46.125	633.87	472.7	110	742.68	469.51	70.053	527.12	463.36	91.984	525.28	335.67	-115.14	405.95	459.11	-125.31	319.71	433.82	-176.53	360.43	443.53	-65.228	365.67	450.03	-256.88	252.92	416.22	-241.57	243.35	328.18	-321.11	286.82	367.43	-341.7	264.72	334.59	-344.32	261.66	399.85	-258.82	106.5	434.12	-232.73	96.16	317.12	-185.25	48.262	360.49	101.67	723.55	144.39	162.36	660.29	211.2	102.62	634.72	165.93	153.81	752.15	186.46	109.33	542.81	183.54	125.33	555.75	302.93	77.58	314.46	193.51	144.16	255.97	203.22	74.253	242.92	211.46	143.22	326.3	190.57	124.58	104.66	217.21	128.48	112.25	309.14	51.2	70.004	257.41	54.161	43.622	290.85	59.039	43.562	228.86	238.8	46.87	202.25	250.98	57.459	319.29	323.9	75.854	271.45	-73.958	1538.7	299.05	-129.8	1265	298.72
254	1.0542	116.48	1280.7	303.25	-7.4665	1487.2	473.71	-17.201	1487.5	120.74	43.386	1804.3	297.48	56.745	1040.5	431.81	72.347	1042	177.16	-136.45	1062.5	329.02	-133.48	1067.3	248.66	-0.40014	970.76	477.73	-13.669	973.53	119.86	-25.441	1117	457.68	3.4932	1114	138.48	-148.55	1029.7	290.95	50.405	723.64	485.88	123.34	653.66	462.33	55.894	635.08	472.5	118.33	744.68	469.01	81.265	528.73	463.18	102.14	527.16	335.25	-103.64	407.26	459.65	-113.91	321.18	434.11	-165.08	361.74	444.31	-53.763	367.16	450.1	-245.75	254.77	417.12	-230.65	244.77	328.97	-310.57	287.68	368.03	-330.98	265.09	335.45	-333.43	262.6	400.73	-246.3	108.8	435.99	-220.33	97.595	319.16	-172.32	50.014	362.82	105.74	723.67	143.96	166.29	660.18	210.7	106.34	634.86	165.54	158.15	752.06	185.88	112.67	542.85	183.25	129.07	555.79	302.53	79.382	314.72	193.44	145.55	255.78	203.08	75.572	243.22	211.43	145.1	326.09	190.38	124.92	104.64	217.21	128.83	112.25	309.11	51.283	70.074	257.41	54.219	43.691	290.84	59.1	43.646	228.84	238.91	46.637	202.21	251.14	57.044	319.33	324.13	75.153	271.49	-68.325	1539.2	298.83	-124.39	1265.5	298.5
255	1.0583	121.89	1280.9	303.28	-2.0602	1487.7	473.61	-11.381	1487.9	120.61	48.938	1804.8	297.2	61.956	1040.9	431.62	77.56	1042.5	176.93	-131.31	1063	328.9	-128.29	1067.8	248.56	4.9987	971.1	477.6	-8.5872	974.18	119.64	-20.182	1117.3	457.56	8.7486	1114.6	138.39	-143.39	1030.2	290.81	59.037	724.86	485.67	132.71	655.78	461.82	65.588	636.39	472.24	126.58	746.76	468.47	92.382	530.44	462.94	112.2	529.13	334.78	-92.147	408.45	460.1	-102.39	322.51	434.35	-153.56	362.84	445.01	-42.241	368.59	450.11	-234.4	256.3	417.96	-219.48	245.87	329.71	-299.88	288.04	368.55	-320.05	264.92	336.24	-322.34	263.02	401.54	-233.26	110.83	437.86	-207.38	98.785	321.19	-158.75	51.778	365.15	109.72	723.77	143.58	170.13	660.03	210.22	109.96	634.98	165.19	162.42	751.94	185.32	115.9	542.89	182.99	132.69	555.81	302.17	81.116	314.98	193.4	146.89	255.59	202.97	76.837	243.51	211.43	146.91	325.89	190.23	125.22	104.63	217.23	129.14	112.25	309.1	51.356	70.138	257.41	54.267	43.752	290.84	59.153	43.729	228.82	239.01	46.445	202.17	251.27	56.659	319.39	324.34	74.513	271.54	-62.697	1539.8	298.63	-118.99	1266.1	298.3
256	1.0625	127.28	1281.2	303.3	3.3507	1488.2	473.51	-5.5878	1488.3	120.48	54.506	1805.3	296.93	67.144	1041.4	431.44	82.761	1043.1	176.71	-126.18	1063.4	328.77	-123.11	1068.3	248.45	10.34	971.48	477.47	-3.5305	974.8	119.44	-14.94	1117.7	457.43	13.994	1115.2	138.3	-138.23	1030.7	290.68	67.59	726.18	485.41	141.98	657.99	461.25	75.202	637.8	471.94	134.75	748.92	467.88	103.39	532.25	462.62	122.2	531.2	334.25	-80.658	409.53	460.48	-90.748	323.68	434.56	-141.97	363.72	445.62	-30.671	369.95	450.09	-222.84	257.47	418.74	-208.07	246.64	330.39	-289.02	287.92	368.99	-308.89	264.22	336.96	-311.02	262.92	402.28	-219.73	112.58	439.71	-193.91	99.727	323.18	-144.58	53.524	367.46	113.61	723.85	143.23	173.88	659.85	209.76	113.47	635.08	164.89	166.61	751.78	184.78	119.03	542.92	182.77	136.18	555.82	301.87	82.787	315.23	193.38	148.17	255.42	202.88	78.052	243.8	211.45	148.64	325.69	190.1	125.5	104.63	217.26	129.42	112.25	309.1	51.42	70.199	257.42	54.305	43.806	290.83	59.201	43.811	228.82	239.1	46.288	202.15	251.39	56.297	319.45	324.53	73.924	271.6	-57.075	1540.4	298.44	-113.61	1266.8	298.11
257	1.0667	132.65	1281.5	303.32	8.7646	1488.7	473.43	0.17961	1488.7	120.36	60.09	1805.9	296.67	72.309	1041.9	431.25	87.953	1043.6	176.49	-121.06	1064	328.63	-117.93	1068.8	248.34	15.627	971.92	477.34	1.505	975.42	119.27	-9.7148	1118.2	457.3	19.236	1115.8	138.21	-133.09	1031.3	290.54	76.059	727.57	485.12	151.16	660.29	460.62	84.73	639.31	471.59	142.83	751.15	467.26	114.29	534.14	462.25	132.13	533.34	333.68	-69.184	410.48	460.79	-78.989	324.7	434.73	-130.31	364.4	446.15	-19.058	371.25	450.04	-211.06	258.3	419.46	-196.4	247.08	331.02	-277.98	287.33	369.38	-297.49	263.01	337.64	-299.48	262.31	402.97	-205.73	114.04	441.51	-179.96	100.42	325.12	-129.85	55.224	369.71	117.43	723.91	142.92	177.54	659.64	209.33	116.88	635.17	164.62	170.75	751.59	184.26	122.06	542.94	182.6	139.55	555.82	301.61	84.399	315.47	193.38	149.4	255.25	202.82	79.222	244.09	211.49	150.32	325.5	190	125.76	104.64	217.3	129.68	112.25	309.11	51.476	70.257	257.44	54.335	43.854	290.83	59.243	43.893	228.82	239.18	46.16	202.13	251.49	55.954	319.53	324.7	73.38	271.67	-51.46	1540.9	298.27	-108.25	1267.4	297.93
